# xmcd
# Track frame offsets:
# 150
# 15034
# 29295
# 45947
# 69350
# 89379
# 107040
# 127773
# 142691
# 161819
# 182385
# 200163
# 217492
# 235495
# 249823
#
# Disc length: 3536 seconds
# Revision: 0
# Processed by: cddbd v1.5.1PL0 Copyright (c) Steve Scherf et al.
# Submitted via: VisiTrax 2.9.10.228 - For more info visit www.synapsa.com
#
DISCID=bd0dce0f
DTITLE=Various Artist - CB60325
DYEAR=1900
DGENRE=Karaoke
TTITLE0=Lawrence, Tracy - It's All How You Look At It
TTITLE1=Trick Pony - Bride, The
TTITLE2=Allan, Gary - Nothing On But The Radio
TTITLE3=McGraw, Tim - Live Like You Were Dying
TTITLE4=Sugarland - Baby Girl
TTITLE5=Rushlow, Tim - Sweet Summer Rain
TTITLE6=Kid Rock - Single Father
TTITLE7=Buffett, Jimmy and C.Black - Hey Good Lookin'
TTITLE8=Tyler, Ryan - Last Thing She Said, The
TTITLE9=Lonestar - Somebody's Someone
TTITLE10=Rogers, Kenny and Whitney - My World Is Over
TTITLE11=Montgomery Gentry - You Do Your Thing
TTITLE12=Elam, Katrina - I Won't Say Goodbye
TTITLE13=Lawson, Shannon - Just Like A Redneck
TTITLE14=Bryant, Keith - Ridin' With The Legend
EXTD=
EXTT0=
EXTT1=
EXTT2=
EXTT3=
EXTT4=
EXTT5=
EXTT6=
EXTT7=
EXTT8=
EXTT9=
EXTT10=
EXTT11=
EXTT12=
EXTT13=
EXTT14=
PLAYORDER=
